<svg xmlns="http://www.w3.org/2000/svg" viewBox="0 0 150 148" version="1.1">
    <g stroke="none" stroke-width="1" fill="none" fill-rule="evenodd">
        <rect id="Rectangle-Copy-2" fill="#33334D" transform="translate(98.500000, 118.500000) rotate(90.000000) translate(-98.500000, -118.500000) " x="92" y="82" width="13" height="73" rx="4"></rect>
        <path d="M17.4608885,46.1207615 L85.7127958,69.9271474 C86.7092334,70.2948628 87,71.2507644 87,72.4290383 L87,78.9025554 L87,85.5879897 C87,86.6634152 86.7092334,87.7035151 85.7127958,88.0712304 L17.4608885,111.877138 C16.4644509,112.244853 15,111.766983 15,110.713654 L15,100.642483 C15,99.556459 15.2907666,98.5218808 16.2872042,98.1541655 L68.1939204,78.999117 L16.2872042,59.8442123 C15.2907666,59.476497 15,58.4321246 15,57.3618836 L15,47.284245 C15,46.2489202 16.4644509,45.7530461 17.4608885,46.1207615 Z" id="Path" fill="#EA6001"></path>
        <path d="M17.4608885,23.1189318 L85.7127958,46.5646149 C86.7092334,46.9267588 87,47.868177 87,49.0285983 L87,55.4040318 L87,61.9881716 C87,63.0473028 86.7092334,64.0716436 85.7127958,64.4337875 L17.4608885,87.8789993 C16.4644509,88.2411432 15,87.770514 15,86.7331442 L15,76.8145664 C15,75.7449975 15.2907666,74.7260948 16.2872042,74.3639509 L68.1939204,55.4991304 L16.2872042,36.6344515 C15.2907666,36.2723077 15,35.2437591 15,34.1897339 L15,24.2647868 C15,23.2451486 16.4644509,22.7567879 17.4608885,23.1189318 Z" id="Path-Copy-2" fill="#00B3EC"></path>
    </g>
</svg>